PathFileType	4	(X/Y/Z)	E:/New_biomech_experiments/MICROGRAVITY MOCAP/Session 2024-06-22/Neeraj_Tpose_22_06_24.trc	
DataRate	CameraRate	NumFrames	NumMarkers	Units	OrigDataRate	OrigDataStartFrame	OrigNumFrames	
120.00	120.00	14	19	m	120.00	1366	1560	
Frame#	Time	MarkerSet_RSHO			MarkerSet_RBAK			MarkerSet_LBHD			MarkerSet_RUPA			MarkerSet_PRSHO			MarkerSet_RWRB			MarkerSet_RELB			MarkerSet_RFRM			MarkerSet_CLAV			MarkerSet_RWRA			MarkerSet_STRN			MarkerSet_ARSHO			MarkerSet_RFHD			MarkerSet_LFHD			MarkerSet_DIA			MarkerSet_C7			MarkerSet_MRELB			MarkerSet_T10			MarkerSet_RBHD			
		X1	Y1	Z1	X2	Y2	Z2	X3	Y3	Z3	X4	Y4	Z4	X5	Y5	Z5	X6	Y6	Z6	X7	Y7	Z7	X8	Y8	Z8	X9	Y9	Z9	X10	Y10	Z10	X11	Y11	Z11	X12	Y12	Z12	X13	Y13	Z13	X14	Y14	Z14	X15	Y15	Z15	X16	Y16	Z16	X17	Y17	Z17	X18	Y18	Z18	X19	Y19	Z19	

1366	11.375	-0.04515	1.57578	0.09291	-0.10860	1.37135	0.02021	-0.03208	1.71977	-0.11245	-0.02766	1.54463	0.27279	-0.10247	1.48069	0.08531	-0.06468	1.50929	0.70091	-0.03913	1.54384	0.40812	-0.03059	1.54513	0.54532	0.10625	1.48787	-0.06598	0.03503	1.50917	0.69395	0.13891	1.32463	-0.04898	0.06879	1.51894	0.09037	0.07465	1.80956	0.03147	0.08866	1.82543	-0.07019	0.07768	1.17566	0.11326	-0.09433	1.53127	-0.06614	0.02422	1.44127	0.41477	-0.10922	1.33759	-0.04868	-0.05302	1.71696	-0.00909 
1367	11.383	-0.04519	1.57578	0.09288	-0.10861	1.37135	0.02018	-0.03211	1.71977	-0.11249	-0.02769	1.54462	0.27277	-0.10250	1.48068	0.08527	-0.06468	1.50931	0.70088	-0.03916	1.54384	0.40808	-0.03060	1.54515	0.54529	0.10621	1.48785	-0.06602	0.03503	1.50920	0.69391	0.13888	1.32463	-0.04901	0.06875	1.51896	0.09034	0.07460	1.80957	0.03146	0.08862	1.82542	-0.07022	0.07768	1.17567	0.11323	-0.09437	1.53126	-0.06618	0.02420	1.44129	0.41474	-0.10924	1.33758	-0.04871	-0.05308	1.71697	-0.00913 
1368	11.392	-0.04522	1.57578	0.09286	-0.10862	1.37134	0.02016	-0.03213	1.71977	-0.11253	-0.02772	1.54462	0.27274	-0.10253	1.48068	0.08524	-0.06468	1.50932	0.70085	-0.03920	1.54384	0.40805	-0.03062	1.54516	0.54526	0.10617	1.48784	-0.06606	0.03502	1.50922	0.69388	0.13884	1.32463	-0.04905	0.06871	1.51898	0.09031	0.07455	1.80958	0.03144	0.08858	1.82543	-0.07024	0.07769	1.17567	0.11321	-0.09440	1.53124	-0.06622	0.02418	1.44130	0.41470	-0.10925	1.33757	-0.04873	-0.05316	1.71699	-0.00917 
1369	11.400	-0.04524	1.57577	0.09284	-0.10863	1.37135	0.02013	-0.03216	1.71976	-0.11257	-0.02775	1.54461	0.27272	-0.10256	1.48067	0.08520	-0.06469	1.50932	0.70082	-0.03923	1.54384	0.40802	-0.03064	1.54516	0.54522	0.10614	1.48784	-0.06609	0.03501	1.50924	0.69384	0.13881	1.32463	-0.04908	0.06867	1.51900	0.09028	0.07449	1.80958	0.03142	0.08854	1.82543	-0.07025	0.07769	1.17567	0.11318	-0.09444	1.53123	-0.06626	0.02416	1.44130	0.41466	-0.10926	1.33756	-0.04876	-0.05326	1.71702	-0.00921 
1370	11.408	-0.04527	1.57577	0.09281	-0.10864	1.37136	0.02011	-0.03220	1.71977	-0.11261	-0.02777	1.54462	0.27268	-0.10259	1.48067	0.08515	-0.06470	1.50933	0.70080	-0.03925	1.54383	0.40799	-0.03065	1.54516	0.54519	0.10610	1.48785	-0.06612	0.03500	1.50925	0.69380	0.13879	1.32464	-0.04912	0.06864	1.51901	0.09024	0.07444	1.80959	0.03141	0.08849	1.82543	-0.07027	0.07770	1.17567	0.11316	-0.09447	1.53121	-0.06631	0.02413	1.44130	0.41461	-0.10928	1.33755	-0.04878	-0.05338	1.71708	-0.00923 
1371	11.417	-0.04531	1.57577	0.09277	-0.10865	1.37136	0.02008	-0.03225	1.71977	-0.11267	-0.02780	1.54463	0.27264	-0.10262	1.48068	0.08511	-0.06471	1.50932	0.70077	-0.03928	1.54383	0.40795	-0.03067	1.54515	0.54516	0.10607	1.48785	-0.06615	0.03499	1.50925	0.69377	0.13876	1.32464	-0.04916	0.06861	1.51902	0.09021	0.07438	1.80959	0.03140	0.08845	1.82544	-0.07029	0.07770	1.17568	0.11313	-0.09450	1.53120	-0.06635	0.02410	1.44129	0.41457	-0.10929	1.33755	-0.04881	-0.05353	1.71716	-0.00925 
1372	11.425	-0.04536	1.57577	0.09273	-0.10867	1.37134	0.02004	-0.03230	1.71977	-0.11273	-0.02782	1.54464	0.27260	-0.10265	1.48069	0.08506	-0.06471	1.50931	0.70075	-0.03930	1.54382	0.40793	-0.03068	1.54514	0.54514	0.10604	1.48784	-0.06619	0.03497	1.50925	0.69373	0.13874	1.32464	-0.04920	0.06858	1.51903	0.09018	0.07432	1.80960	0.03138	0.08841	1.82544	-0.07030	0.07771	1.17568	0.11310	-0.09453	1.53119	-0.06639	0.02407	1.44128	0.41452	-0.10930	1.33754	-0.04884	-0.05372	1.71727	-0.00926 
1373	11.433	-0.04540	1.57576	0.09269	-0.10868	1.37131	0.01999	-0.03235	1.71977	-0.11278	-0.02784	1.54464	0.27256	-0.10268	1.48069	0.08502	-0.06472	1.50929	0.70072	-0.03932	1.54381	0.40790	-0.03069	1.54512	0.54511	0.10600	1.48782	-0.06624	0.03496	1.50924	0.69370	0.13872	1.32465	-0.04924	0.06856	1.51904	0.09015	0.07426	1.80961	0.03136	0.08837	1.82546	-0.07031	0.07771	1.17568	0.11306	-0.09456	1.53118	-0.06643	0.02403	1.44126	0.41447	-0.10931	1.33753	-0.04887	-0.05397	1.71743	-0.00926 
1374	11.442	-0.04543	1.57576	0.09265	-0.10870	1.37128	0.01994	-0.03240	1.71977	-0.11283	-0.02786	1.54464	0.27253	-0.10270	1.48068	0.08499	-0.06473	1.50926	0.70069	-0.03935	1.54380	0.40787	-0.03070	1.54510	0.54508	0.10598	1.48781	-0.06628	0.03496	1.50922	0.69367	0.13870	1.32465	-0.04927	0.06853	1.51904	0.09012	0.07421	1.80961	0.03134	0.08833	1.82547	-0.07033	0.07771	1.17568	0.11303	-0.09459	1.53118	-0.06648	0.02400	1.44124	0.41443	-0.10932	1.33753	-0.04889	-0.05430	1.71766	-0.00923 
1375	11.450	-0.04546	1.57575	0.09263	-0.10872	1.37127	0.01990	-0.03245	1.71977	-0.11287	-0.02789	1.54462	0.27250	-0.10272	1.48066	0.08495	-0.06473	1.50923	0.70067	-0.03937	1.54378	0.40784	-0.03071	1.54507	0.54505	0.10595	1.48781	-0.06632	0.03495	1.50922	0.69364	0.13868	1.32465	-0.04931	0.06851	1.51905	0.09009	0.07415	1.80962	0.03132	0.08828	1.82548	-0.07035	0.07771	1.17568	0.11300	-0.09461	1.53117	-0.06651	0.02398	1.44122	0.41438	-0.10933	1.33752	-0.04892	-0.05473	1.71798	-0.00918 
1376	11.458	-0.04547	1.57574	0.09261	-0.10873	1.37125	0.01985	-0.03250	1.71977	-0.11292	-0.02791	1.54460	0.27247	-0.10275	1.48064	0.08491	-0.06473	1.50919	0.70064	-0.03938	1.54376	0.40782	-0.03072	1.54504	0.54502	0.10593	1.48781	-0.06636	0.03495	1.50922	0.69362	0.13867	1.32465	-0.04935	0.06848	1.51905	0.09006	0.07409	1.80962	0.03129	0.08823	1.82548	-0.07038	0.07771	1.17569	0.11297	-0.09463	1.53116	-0.06655	0.02397	1.44120	0.41434	-0.10934	1.33751	-0.04895	-0.05529	1.71840	-0.00908 
1377	11.467	-0.04549	1.57574	0.09259	-0.10875	1.37123	0.01981	-0.03254	1.71976	-0.11296	-0.02794	1.54457	0.27244	-0.10277	1.48062	0.08487	-0.06473	1.50915	0.70062	-0.03940	1.54373	0.40779	-0.03073	1.54501	0.54500	0.10591	1.48780	-0.06640	0.03496	1.50922	0.69360	0.13866	1.32466	-0.04939	0.06846	1.51905	0.09003	0.07403	1.80963	0.03126	0.08818	1.82549	-0.07040	0.07772	1.17569	0.11295	-0.09466	1.53115	-0.06659	0.02395	1.44117	0.41429	-0.10935	1.33751	-0.04899	-0.05589	1.71884	-0.00891 
1378	11.475	-0.04551	1.57573	0.09256	-0.10876	1.37122	0.01976	-0.03258	1.71975	-0.11299	-0.02796	1.54453	0.27241	-0.10279	1.48062	0.08483	-0.06473	1.50911	0.70059	-0.03941	1.54371	0.40776	-0.03073	1.54497	0.54497	0.10589	1.48780	-0.06644	0.03497	1.50923	0.69358	0.13865	1.32466	-0.04942	0.06844	1.51905	0.09001	0.07398	1.80963	0.03122	0.08813	1.82550	-0.07043	0.07772	1.17570	0.11292	-0.09468	1.53115	-0.06662	0.02394	1.44114	0.41425	-0.10936	1.33750	-0.04902	-0.05640	1.71920	-0.00868 
1379	11.483	-0.04554	1.57572	0.09253	-0.10878	1.37121	0.01972	-0.03262	1.71974	-0.11303	-0.02798	1.54448	0.27238	-0.10280	1.48061	0.08479	-0.06471	1.50907	0.70056	-0.03942	1.54368	0.40774	-0.03073	1.54493	0.54494	0.10588	1.48780	-0.06647	0.03498	1.50923	0.69356	0.13864	1.32466	-0.04946	0.06842	1.51904	0.08998	0.07392	1.80963	0.03118	0.08808	1.82551	-0.07046	0.07771	1.17570	0.11288	-0.09469	1.53114	-0.06666	0.02393	1.44111	0.41421	-0.10937	1.33750	-0.04905	-0.05677	1.71947	-0.00839 
